<?xml version="1.0" encoding="utf-8"?>
<svg id="master-artboard" viewBox="0 0 1400 980" version="1.1" xmlns="http://www.w3.org/2000/svg" x="0px" y="0px" style="enable-background:new 0 0 336 235.2;" width="1400px" height="980px"><defs><radialGradient id="gradient-0" gradientUnits="objectBoundingBox" cx="0.5" cy="0.5" r="0.5">
                <stop offset="0" style="stop-color: #ffb38c"/>
                <stop offset="1" style="stop-color: #ff6e26"/>
              </radialGradient><radialGradient id="gradient-1" gradientUnits="objectBoundingBox" cx="0.5" cy="0.5" r="0.5">
                <stop offset="0" style="stop-color: #ffa382"/>
                <stop offset="1" style="stop-color: #ff591c"/>
              </radialGradient><radialGradient id="gradient-2" gradientUnits="objectBoundingBox" cx="0.5" cy="0.5" r="0.5">
                <stop offset="0" style="stop-color: #ffaa85"/>
                <stop offset="1" style="stop-color: #ff621f"/>
              </radialGradient><radialGradient id="gradient-3" gradientUnits="objectBoundingBox" cx="0.5" cy="0.5" r="0.5">
                <stop offset="0" style="stop-color: #ffaa85"/>
                <stop offset="1" style="stop-color: #ff621f"/>
              </radialGradient><radialGradient id="gradient-4" gradientUnits="objectBoundingBox" cx="0.5" cy="0.5" r="0.5">
                <stop offset="0" style="stop-color: #ff9e80"/>
                <stop offset="1" style="stop-color: #ff4f1a"/>
              </radialGradient><radialGradient id="gradient-5" gradientUnits="objectBoundingBox" cx="0.5" cy="0.5" r="0.5">
                <stop offset="0" style="stop-color: #ff9e80"/>
                <stop offset="1" style="stop-color: #ff4f1a"/>
              </radialGradient><radialGradient id="gradient-6" gradientUnits="objectBoundingBox" cx="0.5" cy="0.5" r="0.5">
                <stop offset="0" style="stop-color: #ffa485"/>
                <stop offset="1" style="stop-color: #ff571f"/>
              </radialGradient><radialGradient id="gradient-7" gradientUnits="objectBoundingBox" cx="0.5" cy="0.5" r="0.5">
                <stop offset="0" style="stop-color: #ff9987"/>
                <stop offset="1" style="stop-color: #ff4221"/>
              </radialGradient><radialGradient id="gradient-8" gradientUnits="objectBoundingBox" cx="0.5" cy="0.5" r="0.5">
                <stop offset="0" style="stop-color: #ff9987"/>
                <stop offset="1" style="stop-color: #ff4221"/>
              </radialGradient><radialGradient id="gradient-9" gradientUnits="objectBoundingBox" cx="0.5" cy="0.5" r="0.5">
                <stop offset="0" style="stop-color: #ffa485"/>
                <stop offset="1" style="stop-color: #ff571f"/>
              </radialGradient><radialGradient id="gradient-10" gradientUnits="objectBoundingBox" cx="0.5" cy="0.5" r="0.5">
                <stop offset="0" style="stop-color: #ffa273"/>
                <stop offset="1" style="stop-color: #ff5e0d"/>
              </radialGradient><radialGradient id="gradient-11" gradientUnits="objectBoundingBox" cx="0.5" cy="0.5" r="0.5">
                <stop offset="0" style="stop-color: #ffd694"/>
                <stop offset="1" style="stop-color: #ffaf2e"/>
              </radialGradient><radialGradient id="gradient-12" gradientUnits="objectBoundingBox" cx="0.5" cy="0.5" r="0.5">
                <stop offset="0" style="stop-color: #96441b"/>
                <stop offset="1" style="stop-color: #401d0b"/>
              </radialGradient><radialGradient id="gradient-13" gradientUnits="objectBoundingBox" cx="0.5" cy="0.5" r="0.5">
                <stop offset="0" style="stop-color: #ffd9d6"/>
                <stop offset="1" style="stop-color: #ff7a70"/>
              </radialGradient><radialGradient id="gradient-14" gradientUnits="objectBoundingBox" cx="0.5" cy="0.5" r="0.5">
                <stop offset="0" style="stop-color: #ffd7d4"/>
                <stop offset="1" style="stop-color: #ff786e"/>
              </radialGradient><radialGradient id="gradient-15" gradientUnits="objectBoundingBox" cx="0.5" cy="0.5" r="0.5">
                <stop offset="0" style="stop-color: #ff7a7e"/>
                <stop offset="1" style="stop-color: #ff141c"/>
              </radialGradient><radialGradient id="gradient-16" gradientUnits="objectBoundingBox" cx="0.5" cy="0.5" r="0.5">
                <stop offset="0" style="stop-color: #ffd9d6"/>
                <stop offset="1" style="stop-color: #ff7a70"/>
              </radialGradient><radialGradient id="gradient-17" gradientUnits="objectBoundingBox" cx="0.5" cy="0.5" r="0.5">
                <stop offset="0" style="stop-color: #ffd9d6"/>
                <stop offset="1" style="stop-color: #ff7a70"/>
              </radialGradient><clipPath id="_clipPath_WtVHNEajsiHfTXtdgITPNhNIMQkOAvQi"><path d="M 0 0 H 100 V 230 H 0 V 0 Z"/></clipPath><clipPath id="_clipPath_jSQj84P7MM6Q0x4VLRvbcrhexSG1cJxl"><path d="M 0 0 H 100 V 100 H 0 V 0 Z"/></clipPath><radialGradient id="gradient-18" gradientUnits="objectBoundingBox" cx="0.5" cy="0.5" r="0.5">
                <stop offset="0" style="stop-color: #ffd9d6"/>
                <stop offset="1" style="stop-color: #ff7a70"/>
              </radialGradient><radialGradient id="gradient-19" gradientUnits="objectBoundingBox" cx="0.5" cy="0.5" r="0.5">
                <stop offset="0" style="stop-color: #ffd9d6"/>
                <stop offset="1" style="stop-color: #ff7a70"/>
              </radialGradient><radialGradient id="gradient-20" gradientUnits="objectBoundingBox" cx="0.5" cy="0.5" r="0.5">
                <stop offset="0" style="stop-color: #ffd9d6"/>
                <stop offset="1" style="stop-color: #ff7a70"/>
              </radialGradient><radialGradient id="gradient-21" gradientUnits="objectBoundingBox" cx="0.5" cy="0.5" r="0.5">
                <stop offset="0" style="stop-color: #ffd9d6"/>
                <stop offset="1" style="stop-color: #ff7a70"/>
              </radialGradient><radialGradient id="gradient-22" gradientUnits="objectBoundingBox" cx="0.5" cy="0.5" r="0.5">
                <stop offset="0" style="stop-color: #ffd9d6"/>
                <stop offset="1" style="stop-color: #ff7a70"/>
              </radialGradient><radialGradient id="gradient-23" gradientUnits="objectBoundingBox" cx="0.5" cy="0.5" r="0.5">
                <stop offset="0" style="stop-color: #ff7a7e"/>
                <stop offset="1" style="stop-color: #ff141c"/>
              </radialGradient><radialGradient id="gradient-24" gradientUnits="objectBoundingBox" cx="0.5" cy="0.5" r="0.5">
                <stop offset="0" style="stop-color: #ff7a7e"/>
                <stop offset="1" style="stop-color: #ff141c"/>
              </radialGradient><radialGradient id="gradient-25" gradientUnits="objectBoundingBox" cx="0.5" cy="0.5" r="0.5">
                <stop offset="0" style="stop-color: #ffeec2"/>
                <stop offset="1" style="stop-color: #ffd15c"/>
              </radialGradient><radialGradient id="gradient-26" gradientUnits="objectBoundingBox" cx="0.5" cy="0.5" r="0.5">
                <stop offset="0" style="stop-color: #ffa3b1"/>
                <stop offset="1" style="stop-color: #ff3d5a"/>
              </radialGradient><linearGradient id="gradient-27" gradientUnits="objectBoundingBox" x1="0.5" y1="0" x2="0.5" y2="1">
                <stop offset="0" style="stop-color: #ffdbe4"/>
                <stop offset="1" style="stop-color: #ff7597"/>
              </linearGradient><radialGradient id="gradient-28" gradientUnits="objectBoundingBox" cx="0.5" cy="0.5" r="0.5">
                <stop offset="0" style="stop-color: #ffd9d6"/>
                <stop offset="1" style="stop-color: #ff7a70"/>
              </radialGradient><clipPath id="path-1"><path d="M 0 0 H 100 V 100 H 0 V 0 Z"/></clipPath><radialGradient id="gradient-29" gradientUnits="objectBoundingBox" cx="0.5" cy="0.5" r="0.5">
                <stop offset="0" style="stop-color: #ffd9d6"/>
                <stop offset="1" style="stop-color: #ff7a70"/>
              </radialGradient><radialGradient id="gradient-30" gradientUnits="objectBoundingBox" cx="0.5" cy="0.5" r="0.5">
                <stop offset="0" style="stop-color: #ffd9d6"/>
                <stop offset="1" style="stop-color: #ff7a70"/>
              </radialGradient><radialGradient id="gradient-31" gradientUnits="objectBoundingBox" cx="0.5" cy="0.5" r="0.5">
                <stop offset="0" style="stop-color: #ffd9d6"/>
                <stop offset="1" style="stop-color: #ff7a70"/>
              </radialGradient><clipPath id="path-2"><path d="M 0 0 H 100 V 100 H 0 V 0 Z"/></clipPath><radialGradient id="gradient-32" gradientUnits="objectBoundingBox" cx="0.5" cy="0.5" r="0.5">
                <stop offset="0" style="stop-color: #ffd9d6"/>
                <stop offset="1" style="stop-color: #ff7a70"/>
              </radialGradient><radialGradient id="gradient-33" gradientUnits="objectBoundingBox" cx="0.5" cy="0.5" r="0.5">
                <stop offset="0" style="stop-color: #ffd9d6"/>
                <stop offset="1" style="stop-color: #ff7a70"/>
              </radialGradient><clipPath id="path-3"><path d="M 0 0 H 100 V 100 H 0 V 0 Z"/></clipPath><radialGradient id="gradient-34" gradientUnits="objectBoundingBox" cx="0.5" cy="0.5" r="0.5">
                <stop offset="0" style="stop-color: #ffd9d6"/>
                <stop offset="1" style="stop-color: #ff7a70"/>
              </radialGradient><radialGradient id="gradient-35" gradientUnits="objectBoundingBox" cx="0.5" cy="0.5" r="0.5">
                <stop offset="0" style="stop-color: #ffd9d6"/>
                <stop offset="1" style="stop-color: #ff7a70"/>
              </radialGradient><radialGradient id="gradient-36" gradientUnits="objectBoundingBox" cx="0.5" cy="0.5" r="0.5">
                <stop offset="0" style="stop-color: #ff4a8c"/>
                <stop offset="1" style="stop-color: #e30053"/>
              </radialGradient><radialGradient id="gradient-37" gradientUnits="objectBoundingBox" cx="0.5" cy="0.5" r="0.5">
                <stop offset="0" style="stop-color: #ff335f"/>
                <stop offset="1" style="stop-color: #cc002c"/>
              </radialGradient><radialGradient id="gradient-38" gradientUnits="objectBoundingBox" cx="0.5" cy="0.5" r="0.5">
                <stop offset="0" style="stop-color: #ff333a"/>
                <stop offset="1" style="stop-color: #cc0007"/>
              </radialGradient><radialGradient id="gradient-39" gradientUnits="objectBoundingBox" cx="0.5" cy="0.5" r="0.5">
                <stop offset="0" style="stop-color: #ff333a"/>
                <stop offset="1" style="stop-color: #cc0007"/>
              </radialGradient><radialGradient id="gradient-40" gradientUnits="objectBoundingBox" cx="0.5" cy="0.5" r="0.5">
                <stop offset="0" style="stop-color: #ff333a"/>
                <stop offset="1" style="stop-color: #cc0007"/>
              </radialGradient><radialGradient id="gradient-41" gradientUnits="objectBoundingBox" cx="0.5" cy="0.5" r="0.5">
                <stop offset="0" style="stop-color: #ff4a8c"/>
                <stop offset="1" style="stop-color: #e30053"/>
              </radialGradient><radialGradient id="gradient-42" gradientUnits="objectBoundingBox" cx="0.5" cy="0.5" r="0.5">
                <stop offset="0" style="stop-color: #ff4a8c"/>
                <stop offset="1" style="stop-color: #e30053"/>
              </radialGradient><radialGradient id="gradient-43" gradientUnits="objectBoundingBox" cx="0.5" cy="0.5" r="0.5">
                <stop offset="0" style="stop-color: #ff335f"/>
                <stop offset="1" style="stop-color: #cc002c"/>
              </radialGradient><radialGradient id="gradient-44" gradientUnits="objectBoundingBox" cx="0.5" cy="0.5" r="0.5">
                <stop offset="0" style="stop-color: #ff335f"/>
                <stop offset="1" style="stop-color: #cc002c"/>
              </radialGradient><radialGradient id="gradient-45" gradientUnits="objectBoundingBox" cx="0.5" cy="0.5" r="0.5">
                <stop offset="0" style="stop-color: #e60c5c"/>
                <stop offset="1" style="stop-color: #850735"/>
              </radialGradient><radialGradient id="gradient-46" gradientUnits="objectBoundingBox" cx="0.5" cy="0.5" r="0.5">
                <stop offset="0" style="stop-color: #ff4a8c"/>
                <stop offset="1" style="stop-color: #e30053"/>
              </radialGradient><radialGradient id="gradient-47" gradientUnits="objectBoundingBox" cx="0.5" cy="0.5" r="0.5">
                <stop offset="0" style="stop-color: #fff8bf"/>
                <stop offset="1" style="stop-color: #ffec59"/>
              </radialGradient><radialGradient id="gradient-48" gradientUnits="objectBoundingBox" cx="0.5" cy="0.5" r="0.5">
                <stop offset="0" style="stop-color: #fff8bf"/>
                <stop offset="1" style="stop-color: #ffec59"/>
              </radialGradient><radialGradient id="gradient-49" gradientUnits="objectBoundingBox" cx="0.5" cy="0.5" r="0.5">
                <stop offset="0" style="stop-color: #ffecc9"/>
                <stop offset="1" style="stop-color: #ffc863"/>
              </radialGradient><radialGradient id="gradient-50" gradientUnits="objectBoundingBox" cx="0.5" cy="0.5" r="0.5">
                <stop offset="0" style="stop-color: #fff8bf"/>
                <stop offset="1" style="stop-color: #ffec59"/>
              </radialGradient><radialGradient id="gradient-51" gradientUnits="objectBoundingBox" cx="0.5" cy="0.5" r="0.5">
                <stop offset="0" style="stop-color: #fff8bf"/>
                <stop offset="1" style="stop-color: #ffec59"/>
              </radialGradient><radialGradient id="gradient-52" gradientUnits="objectBoundingBox" cx="0.5583080053329468" cy="0.32063788175582886" r="0.5">
                <stop offset="0" style="stop-color: #fff8bf"/>
                <stop offset="1" style="stop-color: #ffec59"/>
              </radialGradient></defs><rect id="ee-background" x="0" y="0" width="1400" height="980" style="fill: rgb(255, 219, 228); fill-opacity: 0; pointer-events: none;"/><g transform="matrix(0.12300048768520357, 3.193233966827393, -3.193233966827393, 0.12300048768520357, 1095.46337890625, 448.6777414539911)"><g clip-path="url(#_clipPath_jSQj84P7MM6Q0x4VLRvbcrhexSG1cJxl)"><path d="M 12 4 C 19.95488775292654 12.135063973669203 21.784778994048573 18.18017028802768 27 28.5 C 30.980614216994383 36.376801073914 33.525623368578515 33.13700077063181 39.75 50 C 45.795515563596524 66.37843079593745 61.009 75.804 63.25 89.25 C 63.768 92.36 64.555 92.653 65.75 93.25" fill="none" vector-effect="non-scaling-stroke" stroke-width="1" stroke="rgb(0,0,0)" stroke-linejoin="miter" stroke-linecap="square" stroke-miterlimit="3" style="stroke: rgb(220, 16, 60); stroke-width: 2;"/></g></g><g transform="matrix(2.198048114776611, 3.1750440597534175, -3.1750440597534175, 2.198048114776611, 967.9343872070308, 257.3603739002798)"><g clip-path="url(#_clipPath_jSQj84P7MM6Q0x4VLRvbcrhexSG1cJxl)"><path d="M 12 4 C 19.95488775292654 12.135063973669203 24.229012731883486 17.27417878126214 27 28.5 C 29.75043645347551 39.64256796342683 28.73 45.868 39.75 50 C 56.097 56.13 61.009 75.804 63.25 89.25 C 63.768 92.36 64.555 92.653 65.75 93.25" fill="none" vector-effect="non-scaling-stroke" stroke-width="1" stroke="rgb(0,0,0)" stroke-linejoin="miter" stroke-linecap="square" stroke-miterlimit="3" style="stroke: rgb(229, 4, 87); stroke-width: 2;"/></g></g><g transform="matrix(-1.1509566307067869, 0.6186983585357665, 1.0844949483871458, 2.0174701213836665, 611.679870605469, -329.152031495228)"><g id="Layer_2_1_" transform="matrix(1, 0, 0, 1, 0, 0)">
	<g id="Layer_1-2_1_">
		<path class="st0" d="M277,396.8c0,20.6-17,37.2-38,37.2s-38-16.7-38-37.2s38-62.8,38-62.8S277,376.2,277,396.8z" style="fill: rgb(205, 61, 21); stroke: rgb(0, 0, 0); stroke-width: 3;"/>
	</g>
</g></g><g transform="matrix(1.2229092121124268, 0, 0, 3.9463028907775883, 274.13458251953125, -734.6771169444467)"><g id="g-11" transform="matrix(1, 0, 0, 1, 0, 0)">
	<g id="g-12">
		<path class="st0" d="M 263.9807434082031 395.9930847167969 C 266.5845947265625 422.24139404296875 260 420.2826843261719 239 420.2826843261719 C 218 420.2826843261719 224.43467712402344 416.4930847167969 224.43467712402344 395.9930847167969 C 224.43467712402344 375.4930847167969 239 356.59320068359375 239 356.59320068359375 C 239 356.59320068359375 261.37689208984375 369.7447509765625 263.9807434082031 395.9930847167969 Z" style="fill: rgb(205, 61, 21); stroke: rgb(0, 0, 0); stroke-width: 4;"/>
	</g>
</g></g><g transform="matrix(1.2229092121124268, 0, 0, 3.9463028907775883, 385.58428955078125, -743.6368947764779)"><g id="g-15" transform="matrix(1, 0, 0, 1, 0, 0)">
	<g id="g-16">
		<path class="st0" d="M 263.9807434082031 395.9930847167969 C 266.5845947265625 422.24139404296875 260 420.2826843261719 239 420.2826843261719 C 218 420.2826843261719 224.43467712402344 416.4930847167969 224.43467712402344 395.9930847167969 C 224.43467712402344 375.4930847167969 239 356.59320068359375 239 356.59320068359375 C 239 356.59320068359375 261.37689208984375 369.7447509765625 263.9807434082031 395.9930847167969 Z" style="fill: rgb(205, 61, 21); stroke: rgb(0, 0, 0); stroke-width: 4;"/>
	</g>
</g></g><g transform="matrix(-2.483734369277954, 0, 0, 3.9485025405883785, 2233.926025390625, 281.2625498036001)"><g id="g-3" transform="matrix(1, 0, 0, 1, 0, 0)">
	<g id="g-4">
		<path class="st0" d="M 652 46 C 679.6 46 702 68.4 702 96 C 702 123.6 678.3179565429688 129.06451416015625 650.7179565429688 129.06451416015625 C 623.1179565429687 129.06451416015625 602 123.6 602 96 C 602 68.4 624.4 46 652 46 Z" style="fill: rgb(205, 61, 21); stroke: rgb(0, 0, 0); stroke-width: 2;"/>
	</g>
</g></g><g transform="matrix(-3.8322849273681645, 0.47524178028106695, -0.47524178028106695, -3.8322849273681645, 460.72369384765625, 695.8964304188348)"><g clip-path="url(#_clipPath_jSQj84P7MM6Q0x4VLRvbcrhexSG1cJxl)"><path d="M 12.152830123901367 7.656854033470154 C 20.107717876827905 15.791918007139357 24.46020075493695 20.857935078898898 27.60186195373535 33.425174713134766 C 47.36650338869965 112.48748425084818 54.87198475178332 54.94712331448777 46.17510223388672 56.859947204589844 C 33.228289088335394 59.707513981164794 41.74390962995352 95.15840459771805 46.47511291503906 107.17820739746094 C 46.47511291503906 107.17820739746094 46.51179473876954 111.03023541259766 47.70679473876953 111.62723541259766" fill="none" vector-effect="non-scaling-stroke" stroke-width="1" stroke="rgb(0,0,0)" stroke-linejoin="miter" stroke-linecap="square" stroke-miterlimit="3" style="stroke: rgb(255, 29, 25); stroke-width: 2;"/></g></g><g transform="matrix(-1.1145577430725098, -0.6820958256721497, -1.1956231594085693, 1.953664541244507, 1194.3995361328125, -3.009609772815736)"><g id="g-5" transform="matrix(1, 0, 0, 1, 0, 0)">
	<g id="g-6">
		<path class="st0" d="M277,396.8c0,20.6-17,37.2-38,37.2s-38-16.7-38-37.2s38-62.8,38-62.8S277,376.2,277,396.8z" style="fill: rgb(205, 61, 21); stroke: rgb(0, 0, 0); stroke-width: 4;"/>
	</g>
</g></g><g transform="matrix(1.7655262947082524, -0.5421079993247987, 0.5421079993247987, 1.7655262947082524, -721.693603515625, 297.14783422742846)"><g id="g-7" transform="matrix(1, 0, 0, 1, 0, 0)">
	<g id="g-8">
		<path class="st0" d="M 650.27587890625 59.7931022644043 C 677.87587890625 59.7931022644043 702 68.4 702 96 C 702 123.6 679.6 146 652 146 C 624.4 146 602 123.6 602 96 C 602 68.4 622.67587890625 59.7931022644043 650.27587890625 59.7931022644043 Z" style="fill: rgb(205, 61, 21); stroke: rgb(0, 0, 0); stroke-width: 4;"/>
	</g>
</g></g><g transform="matrix(1.8314213752746586, 0.23845969140529644, -0.23845969140529644, 1.8314213752746586, -410.490753173828, -224.93106897081378)"><g id="g-9" transform="matrix(1, 0, 0, 1, 0, 0)">
	<g id="g-10">
		<path class="st0" d="M 650.27587890625 59.7931022644043 C 677.87587890625 59.7931022644043 702 68.4 702 96 C 702 123.6 679.6 146 652 146 C 624.4 146 602 123.6 602 96 C 602 68.4 622.67587890625 59.7931022644043 650.27587890625 59.7931022644043 Z" style="fill: rgb(205, 61, 21); stroke: rgb(0, 0, 0); stroke-width: 4;"/>
	</g>
</g></g><g transform="matrix(-4.915424823760986, 0, 0, 4.915424823760986, 3827.97119140625, -90.71733148302087)"><g id="g-1" transform="matrix(1, 0, 0, 1, 0, 0)">
	<g id="g-2">
		<path class="st0" d="M 650.9801025390625 36.82073974609375 C 678.5801025390625 36.82073974609375 702 68.4 702 96 C 702 123.6 679.6 125.60163879394531 652 125.60163879394531 C 624.4 125.60163879394531 602 123.6 602 96 C 602 68.4 623.3801025390625 36.82073974609375 650.9801025390625 36.82073974609375 Z" style="fill: rgb(205, 61, 21); stroke: rgb(0, 0, 0); stroke-width: 1;"/>
	</g>
</g></g><g transform="matrix(0.6980272531509398, -0.059306915849447236, 0.059306915849447236, 0.6980272531509398, 136.01348876953125, 888.8150095203971)"><g id="g-13" transform="matrix(1, 0, 0, 1, 0, 0)">
	<g id="g-14">
		<path class="st0" d="M 652 46 C 679.6 46 724.727294921875 68.4 724.727294921875 96 C 724.727294921875 123.6 679.6 146 652 146 C 624.4 146 588.3636474609375 114.50909576416015 588.3636474609375 86.90909576416016 C 588.3636474609375 59.30909576416016 624.4 46 652 46 Z" style="fill: rgb(205, 61, 21); stroke: rgb(0, 0, 0); stroke-width: 6;" transform="matrix(0.9999999999999999, 0, 0, 0.9999999999999999, -4.529131247004443, -0.3848109745281363)"/>
	</g>
</g></g><path class="st0" d="M 652 46 C 679.6 46 724.727294921875 68.4 724.727294921875 96 C 724.727294921875 123.6 679.6 146 652 146 C 624.4 146 588.3636474609375 114.50909576416015 588.3636474609375 86.90909576416016 C 588.3636474609375 59.30909576416016 624.4 46 652 46 Z" style="fill: rgb(205, 61, 21); stroke: rgb(0, 0, 0); stroke-width: 6;" transform="matrix(0.6980273127555847, -0.059306923300027854, 0.059306923300027854, 0.6980273127555847, 243.00958251953125, 877.7145456532098)"/><g transform="matrix(3.0520658493041988, 0, 0, 2.042915105819702, -1361.533935546875, 187.3755563953972)"><g id="g-17" transform="matrix(1, 0, 0, 1, 0, 0)">
	<g id="g-18">
		<path class="st0" d="M 652 55.638553619384766 C 685.7404956053509 55.63855341119769 702 68.4 702 96 C 702 123.5999984741211 680.4064575195313 156.84336853027344 652.8064575195312 156.84336853027344 C 625.2064575195312 156.84336853027344 602 123.6 602 96 C 602 68.4 618.259521484375 55.638553619384766 652 55.638553619384766 Z" style="fill: rgb(255, 232, 237); stroke: rgb(0, 0, 0); stroke-width: 2;"/>
	</g>
</g></g><g transform="matrix(0.2738440930843353, -0.034004855901002884, 0.036801137030124664, 0.29637473821640015, 457.9255371093748, 447.35111181531886)"><g id="g-29" transform="matrix(1, 0, 0, 1, -13.323293440514135, -22.205516400834767)">
	<g id="g-30">
		<path class="st0" d="M 642.0894165039062 41.59772872924805 C 636.8500359103748 41.313520808409386 707.6686066305066 111.61318917559585 687.5728759765625 104.31744384765625 C 667.4771728515625 97.02169799804688 679.142617236513 60.24688779255819 690.9850463867188 103.93256378173828 C 702.8274536132812 147.6182403564453 584.6091918945312 138.44230900330433 584.6091918945312 100.44110107421875 C 584.6091918945312 100.44110107421875 647.3287963867188 41.881935119628906 642.0894165039062 41.59772872924805 Z" style="fill: rgb(255, 36, 50); stroke: rgb(0, 0, 0); stroke-width: 0;"/>
	</g>
</g><path d="M 672.3065185546875 75.07357835769653 L 661.956787109375 81.72239327430725 L 647.6721801757812 80.793954372406" style="fill: rgb(255, 36, 50); fill-opacity: 1; stroke: rgb(0, 0, 0); stroke-opacity: 1; stroke-width: 0; paint-order: fill;"/></g><g transform="matrix(0.5938449501991272, 0, 0, 0.8419843912124635, 218.4661102294922, 334.8359750965691)"><g id="g-21" transform="matrix(1, 0, 0, 1, 0, 0)">
	<g id="g-22">
		<path class="st0" d="M 655.314208984375 137.9685935974121 C 705.4538477884797 136.22404653945546 700.2662325824675 65.7828598022461 702.0000610351562 95.3823013305664 C 703.73388671875 124.98174285888672 679.6 146 652 146 C 624.4 146 602.759765625 123.03648376464844 602 96 C 601.2402575813674 68.96351362923794 605.174560546875 139.71315002441406 655.314208984375 137.9685935974121 Z" style="fill: rgb(0, 0, 0); stroke: rgb(0, 0, 0); stroke-width: 3;"/>
	</g>
</g></g><g transform="matrix(-0.5938449501991272, 0, 0, 0.8419843912124635, 1049.548583984375, 338.47656957899085)"><g id="g-23" transform="matrix(1, 0, 0, 1, 0, 0)">
	<g id="g-24">
		<path class="st0" d="M 655.314208984375 137.9685935974121 C 705.4538477884797 136.22404653945546 700.2662325824675 65.7828598022461 702.0000610351562 95.3823013305664 C 703.73388671875 124.98174285888672 679.6 146 652 146 C 624.4 146 602.759765625 123.03648376464844 602 96 C 601.2402575813674 68.96351362923794 605.174560546875 139.71315002441406 655.314208984375 137.9685935974121 Z" style="fill: rgb(0, 0, 0); stroke: rgb(0, 0, 0); stroke-width: 3;"/>
	</g>
</g></g><g transform="matrix(0.8684855103492736, 0, 0, 0.8684855103492736, 68.12192535400368, 273.097480223522)"><g id="g-19" transform="matrix(1, 0, 0, 1, 0, 0)">
	<g id="g-20">
		<path class="st0" d="M 652 71 C 679.6 71 697.9677124023438 68.4 697.9677124023438 96 C 697.9677124023438 123.6 681.2129150390625 137.12904357910156 653.6129150390625 137.12904357910156 C 626.0129150390625 137.12904357910156 610.8709716796875 123.6 610.8709716796875 96 C 610.8709716796875 68.4 624.4 71 652 71 Z" style="fill: rgb(0, 0, 0); stroke: rgb(0, 0, 0); stroke-width: 2;"/>
	</g>
</g></g><g transform="matrix(0.4597988426685334, 0, 0, 0.4597988426685334, 304.4721984863281, 207.29029028211585)"><g id="g-25" transform="matrix(1, 0, 0, 1, 0, 0)">
	<g id="g-26">
		<path class="st0" d="M652,46c27.6,0,50,22.4,50,50s-22.4,50-50,50s-50-22.4-50-50S624.4,46,652,46z" style="fill: rgb(0, 0, 0); stroke: rgb(0, 0, 0); stroke-width: 0;"/>
	</g>
</g></g><g transform="matrix(0.4597988426685334, 0, 0, 0.4597988426685334, 367.67242431640625, 206.57825414930335)"><g id="g-27" transform="matrix(1, 0, 0, 1, 0, 0)">
	<g id="g-28">
		<path class="st0" d="M652,46c27.6,0,50,22.4,50,50s-22.4,50-50,50s-50-22.4-50-50S624.4,46,652,46z" style="fill: rgb(0, 0, 0); stroke: rgb(0, 0, 0); stroke-width: 0;"/>
	</g>
</g></g><path d="M 792.3098754882812 708.9695434570312" style="fill: rgb(96, 125, 139); fill-opacity: 0; stroke: rgb(0, 0, 0); stroke-opacity: 1; stroke-width: 2; paint-order: fill;" transform="matrix(1.1126331090927122, 0, 0, 1.1126331090927122, 103.51412200927712, -31.46520288194671)"/><path d="M 811.0379638671875 613.456298828125" style="fill: rgb(255, 191, 0); fill-opacity: 1; stroke: rgb(0, 0, 0); stroke-opacity: 1; stroke-width: 2; paint-order: fill;" transform="matrix(1.1126331090927122, 0, 0, 1.1126331090927122, 103.51412200927712, -31.46520288194671)"/><path d="M 960.815185546875 674.6046142578125 L 943.1751708984375 723.9966430664062 C 944.910605387354 737.6699816068423 986.5618001176679 734.0384485892253 985.5111694335938 725.7606201171875 L 973.1631469726562 672.8406372070312" style="fill: url('#gradient-42'); fill-opacity: 1; stroke: rgb(0, 0, 0); stroke-opacity: 1; stroke-width: 0; paint-order: fill;" transform="matrix(0.6341534852981567, 0.15618391335010529, -0.080485999584198, 0.32679736614227295, 422.74261474609375, -65.88054712022785)"/><g transform="matrix(2.875777959823609, 0.7426935434341432, -0.7426935434341432, 2.875777959823609, -692.791748046875, -963.7850271006969)"><g id="g-31" transform="matrix(1, 0, 0, 1, 0, 0)">
	<g id="g-32">
		<path class="st0" d="M 699.8 231 C 694 245.1 652.6999999999999 273.58795166015625 652 274.08795166015625 L 652 273.7055358886719 C 651.3 273.2055358886719 610 245.1 604.2 231 C 598.4000000000001 216.9 604.7 200.3 618.4000000000001 194.3 C 630.8000000000001 188.9 645.4000000000001 193.70000000000002 652.0000000000001 205.5 C 658.7000000000002 193.7 673.2000000000002 188.9 685.6000000000001 194.3 C 699.3 200.3 705.7 216.8 699.8 231 Z" style="fill: url('#gradient-41'); stroke: rgb(0, 0, 0); stroke-width: 0;"/>
	</g>
</g></g><path d="M 960.815185546875 674.6046142578125 L 943.1751708984375 723.9966430664062 C 941.0042543590605 738.202020410302 984.196893367491 734.3605611779545 985.5111694335938 725.7606201171875 L 973.1631469726562 672.8406372070312" style="fill: url('#gradient-43'); fill-opacity: 1; stroke: rgb(0, 0, 0); stroke-opacity: 1; stroke-width: 0; paint-order: fill;" transform="matrix(0.42307615280151367, 0.35511201620101923, -0.18557277321815496, 0.22109124064445493, 798.2563476562502, -5.724474503650754)"/><g transform="matrix(1.677217364311218, 1.7966599464416502, -1.7966599464416502, 1.677217364311218, 479.0366516113281, -1141.8726735850717)"><g id="g-35" transform="matrix(1, 0, 0, 1, 0, 0)">
	<g id="g-36">
		<path class="st0" d="M 699.8 231 C 694 245.1 652.6999999999999 273.58795166015625 652 274.08795166015625 L 652 273.7055358886719 C 651.3 273.2055358886719 610 245.1 604.2 231 C 598.4000000000001 216.9 604.7 200.3 618.4000000000001 194.3 C 630.8000000000001 188.9 645.4000000000001 193.70000000000002 652.0000000000001 205.5 C 658.7000000000002 193.7 673.2000000000002 188.9 685.6000000000001 194.3 C 699.3 200.3 705.7 216.8 699.8 231 Z" style="fill: url('#gradient-44'); stroke: rgb(0, 0, 0); stroke-width: 0;"/>
	</g>
</g></g><path d="M 184.85154724121094 453.6934509277344 L 186.93991088867188 453.6934509277344" style="fill: rgb(51, 51, 51); fill-opacity: 1; stroke: rgb(255, 122, 126); stroke-opacity: 1; stroke-width: 2; paint-order: stroke;" transform="matrix(1.1126331090927122, 0, 0, 1.1126331090927122, 103.51412200927712, -31.46520288194671)"/><g transform="matrix(1.6218868494033816, -0.6012272238731383, 0.6012272238731383, 1.6218868494033816, -975.4582519531251, 287.3602670887565)"><g id="g-41" transform="matrix(1, 0, 0, 1, 0, 0)">
	<g id="g-42">
		<path class="st0" d="M 699.8 231 C 694 245.1 652.6999999999999 273.58795166015625 652 274.08795166015625 L 652 273.7055358886719 C 651.3 273.2055358886719 610 245.1 604.2 231 C 598.4000000000001 216.9 604.7 200.3 618.4000000000001 194.3 C 630.8000000000001 188.9 645.4000000000001 193.70000000000002 652.0000000000001 205.5 C 658.7000000000002 193.7 673.2000000000002 188.9 685.6000000000001 194.3 C 699.3 200.3 705.7 216.8 699.8 231 Z" style="fill: url('#gradient-40'); stroke: rgb(0, 0, 0); stroke-width: 0;"/>
	</g>
</g></g><path d="M 960.815185546875 674.6046142578125 L 943.1751708984375 723.9966430664062 C 944.7642513242483 752.238482726927 986.2155444581668 738.2789479010248 985.5111694335938 725.7606201171875 L 973.1631469726562 672.8406372070312" style="fill: url('#gradient-39'); fill-opacity: 1; stroke: rgb(255, 29, 25); stroke-opacity: 1; stroke-width: 2; paint-order: fill;" transform="matrix(0.5507883429527283, -0.13323406875133514, 0.08860339969396591, 0.36628529429435736, -347.220703125, 214.9565805653191)"/><path d="M 628.6148681640625 350.6099853515625 L 632.4229125976562 402.65313720703125 C 635.0542891946891 411.0939623874723 639.0315746124477 346.7612947073185 640.0390014648438 340.4552307128906 L 628.6148681640625 350.6099853515625 Z" style="fill: rgb(0, 0, 0); fill-opacity: 1; stroke: rgb(0, 0, 0); stroke-opacity: 1; stroke-width: 0; paint-order: fill;" transform="matrix(2.1110997200012207, 0, 0, 1.1020410060882568, -704.8004760742188, -14.063404633655637)"/><path d="M 252.88870239257812 481.3525390625" style="fill: rgb(255, 36, 50); fill-opacity: 1; stroke: rgb(0, 0, 0); stroke-opacity: 1; stroke-width: 0; paint-order: stroke;" transform="matrix(1, 0, 0, 1, 0, 20.677009032115848)"/></svg>